<svg width="62" height="24" viewBox="0 0 62 24" xmlns="http://www.w3.org/2000/svg">
  <path fill="#CFB2FF" d="M10.95 0.575V7.45H3.825V0.575H0V18.175H3.825V10.875H10.95V18.175H14.775V0.575H10.95Z"></path>
  <path fill="#CFB2FF" d="M23.6314 4.95C20.2564 4.95 18.3314 6.8 17.9814 9.025H21.3814C21.5814 8.35 22.2314 7.775 23.4814 7.775C24.7064 7.775 25.6064 8.4 25.6064 9.6V10.2H22.7814C19.4814 10.2 17.4814 11.725 17.4814 14.375C17.4814 16.975 19.4814 18.475 21.9814 18.475C23.6564 18.475 25.0064 17.825 25.8064 16.775V18.175H29.1814V9.725C29.1814 6.575 26.9564 4.95 23.6314 4.95ZM22.9814 15.65C21.8564 15.65 21.1314 15.1 21.1314 14.2C21.1314 13.275 21.9314 12.725 23.0564 12.725H25.6064V13.3C25.6064 14.8 24.3814 15.65 22.9814 15.65Z"></path>
  <path fill="#CFB2FF" d="M39.4707 4.95C37.7207 4.95 36.5207 5.65 35.8457 6.55V0H32.1957V18.175H35.6957V16.7C36.2707 17.7 37.5457 18.475 39.3707 18.475C42.5457 18.475 45.0707 15.975 45.0707 11.725C45.0707 7.4 42.5457 4.95 39.4707 4.95ZM38.5957 15.325C36.8957 15.325 35.7707 13.95 35.7707 11.775V11.675C35.7707 9.5 36.8957 8.1 38.5957 8.1C40.2957 8.1 41.3957 9.525 41.3957 11.725C41.3957 13.925 40.2957 15.325 38.5957 15.325Z"></path>
  <path fill="#CFB2FF" d="M54.7777 5.2C53.3027 5.2 51.8777 5.75 51.0277 7.25V5.25H47.5277V18.175H51.1777V11.625C51.1777 9.775 52.3777 8.65 54.5777 8.65H55.4277V5.2H54.7777Z"></path>
</svg>
