<svg width="62" height="24" viewBox="0 0 62 24" xmlns="http://www.w3.org/2000/svg">
    <path fill="#CFB2FF" d="M16.875 19L11.075 10.225L16.825 1.4H12.6L8.75 7.4L4.94999 1.4H0.574994L6.32499 10.15L0.524994 19H4.79999L8.64999 12.975L12.525 19H16.875Z"></path>
    <path fill="#CFB2FF" d="M24.2607 5.775C20.8857 5.775 18.9607 7.625 18.6107 9.85H22.0107C22.2107 9.175 22.8607 8.6 24.1107 8.6C25.3357 8.6 26.2357 9.225 26.2357 10.425V11.025H23.4107C20.1107 11.025 18.1107 12.55 18.1107 15.2C18.1107 17.8 20.1107 19.3 22.6107 19.3C24.2857 19.3 25.6357 18.65 26.4357 17.6V19H29.8107V10.55C29.8107 7.4 27.5857 5.775 24.2607 5.775ZM23.6107 16.475C22.4857 16.475 21.7607 15.925 21.7607 15.025C21.7607 14.1 22.5607 13.55 23.6857 13.55H26.2357V14.125C26.2357 15.625 25.0107 16.475 23.6107 16.475Z"></path>
    <path fill="#CFB2FF" d="M39.925 6.3C38.125 6.3 36.65 6.95 35.7 8.275C35.95 5.85 36.925 4.65 39.375 4.275L44.3 3.55V0.375L39.025 1.25C33.925 2.1 32.35 5.5 32.35 11.175C32.35 16.275 34.825 19.3 39.2 19.3C43.125 19.3 45.55 16.3 45.55 12.7C45.55 8.825 43.3 6.3 39.925 6.3ZM39.025 16.25C37.125 16.25 36.075 14.725 36.075 12.675C36.075 10.7 37.175 9.275 39.05 9.275C40.875 9.275 41.9 10.75 41.9 12.7C41.9 14.65 40.9 16.25 39.025 16.25Z"></path>
    <path fill="#CFB2FF" d="M55.2855 5.775C53.3855 5.775 52.1605 6.6 51.5105 7.575V6.075H48.0105V23.775H51.6605V17.75C52.3105 18.65 53.5355 19.3 55.1855 19.3C58.3605 19.3 60.8855 16.8 60.8855 12.55C60.8855 8.225 58.3605 5.775 55.2855 5.775ZM54.4105 16.15C52.7105 16.15 51.5855 14.775 51.5855 12.6V12.5C51.5855 10.325 52.7105 8.925 54.4105 8.925C56.1105 8.925 57.2105 10.35 57.2105 12.55C57.2105 14.75 56.1105 16.15 54.4105 16.15Z"></path>
</svg>
